<svg xmlns="http://www.w3.org/2000/svg"  viewBox="0 0 100 100" width="100px" height="100px"><path d="M 63.205078 3.3828125 A 1.0001 1.0001 0 0 0 62.386719 3.7753906 L 61.605469 4.8007812 C 59.910408 6.26834 49.582611 15.205924 47.701172 16.6875 C 43.779986 13.517676 39.61812 10.304996 34.917969 7.0039062 A 1.0001 1.0001 0 0 0 33.349609 7.7148438 C 33.342925 7.7763498 33.338611 7.8351 33.332031 7.8964844 L 30.376953 26.082031 L 11.300781 28.630859 C 10.025781 28.800859 9.4047813 30.279594 10.175781 31.308594 L 21.78125 46.800781 L 9.2285156 54.763672 C 8.2085156 55.410672 8.3304062 56.935156 9.4414062 57.410156 L 20.330078 62.066406 L 13.591797 71.755859 C 12.806797 72.884859 13.613281 74.430641 14.988281 74.431641 L 24.685547 74.439453 L 24.072266 81.853516 C 23.976266 83.012516 25.044828 83.924437 26.173828 83.648438 L 32.693359 82.058594 L 32.542969 87.251953 C 32.507969 88.440953 33.672828 89.298109 34.798828 88.912109 L 35.972656 88.509766 L 35.972656 88.492188 A 1.0001 1.0001 0 0 0 36.224609 88.373047 L 42.578125 84.136719 C 44.638045 86.238857 47.420277 87.878199 50.078125 88.958984 C 49.878114 89.557153 49.598982 90.221122 49.574219 90.646484 C 49.534489 91.328853 49.681641 91.851564 49.681641 91.851562 A 1.0001 1.0001 0 0 0 49.802734 92.107422 C 49.802734 92.107422 52.877221 96.582379 59.068359 96.1875 C 62.119774 95.992877 63.8346 94.923938 64.679688 93.761719 C 65.339397 92.854444 65.410877 92.069213 65.423828 91.693359 L 66.425781 88.603516 C 67.142775 88.319782 71.423201 86.487228 73.052734 82.421875 C 74.495308 81.29264 76.137909 79.382209 77.320312 77.126953 C 78.536964 74.806376 79.288095 72.09824 78.271484 69.695312 C 77.902283 68.71472 77.386154 68.058869 77.037109 67.669922 L 86.636719 64.712891 A 1.0001 1.0001 0 0 0 86.898438 62.927734 L 76.513672 55.957031 C 81.214733 53.938455 85.20885 51.472289 88.027344 48.251953 A 1.0001 1.0001 0 0 0 87.873047 46.791016 C 87.873047 46.791016 85.491536 45.018234 82.779297 43.078125 C 80.356449 41.345023 77.977954 39.733189 76.365234 38.816406 C 76.550508 38.410125 76.812257 37.861903 77.148438 37.181641 C 77.859358 35.74309 78.837299 33.824594 79.824219 31.912109 C 81.798058 28.08714 83.808594 24.277344 83.808594 24.277344 A 1.0001 1.0001 0 0 0 82.802734 22.818359 L 81.939453 22.921875 C 80.028629 22.852211 68.935641 22.448448 67.830078 22.417969 C 67.359092 16.371873 66.37744 10.258067 64.123047 4.0410156 A 1.0001 1.0001 0 0 0 63.205078 3.3828125 z M 62.800781 6.5332031 C 64.900068 12.993119 65.770864 19.378134 66.095703 25.771484 A 1.0001 1.0001 0 0 0 67.214844 26.712891 L 81.158203 25.03125 C 80.54415 26.199241 79.589537 28.006674 78.046875 30.996094 C 77.057295 32.913734 76.076672 34.835566 75.355469 36.294922 C 74.994867 37.0246 74.699825 37.636783 74.496094 38.087891 C 74.394228 38.313445 74.315959 38.494134 74.255859 38.65625 C 74.225809 38.73731 74.200268 38.805801 74.173828 38.923828 C 74.160608 38.982838 74.141351 39.048807 74.144531 39.203125 C 74.146131 39.280285 74.149828 39.382728 74.210938 39.544922 C 74.241497 39.626022 74.368346 39.823232 74.369141 39.824219 C 74.369935 39.825206 74.700125 40.09127 74.701172 40.091797 C 75.805323 40.647239 78.921474 42.778187 81.615234 44.705078 C 83.77091 46.247068 84.973967 47.145415 85.666016 47.658203 C 83.04808 50.356361 79.611534 52.634792 75.279297 54.443359 A 1.0001 1.0001 0 0 0 75.177734 54.380859 C 75.50827 53.080664 75.560976 51.648675 75.207031 50.136719 C 74.66344 47.814646 73.67714 45.763405 72.164062 44.314453 C 71.620831 41.628982 70.363385 33.229134 63.054688 29.003906 C 59.796247 27.120543 55.565129 26.480787 51.507812 26.824219 C 50.958648 26.870703 50.413681 26.937217 49.873047 27.019531 C 46.287418 27.363158 36.040447 29.133094 32.992188 38.447266 C 31.00594 44.516356 34.455707 64.407732 34.744141 66.044922 C 34.671813 66.123253 34.609229 66.179508 34.533203 66.267578 C 33.356208 67.631037 32.302513 69.808506 33.210938 72.267578 C 34.054802 74.551889 35.818351 75.644403 37.324219 76.072266 L 40.251953 83.285156 L 36.650391 85.685547 C 36.644991 84.943322 36.648193 84.662132 36.626953 83.634766 C 36.606753 82.656815 36.577993 81.678136 36.533203 80.923828 C 36.510803 80.546674 36.485169 80.229534 36.449219 79.966797 C 36.431239 79.835428 36.416307 79.724462 36.373047 79.576172 C 36.351417 79.502022 36.331167 79.420057 36.244141 79.275391 C 36.157111 79.130724 35.90671 78.769531 35.359375 78.769531 C 35.098264 78.769531 35.133923 78.787624 35.046875 78.802734 C 34.959825 78.817844 34.856219 78.838461 34.730469 78.863281 C 34.478968 78.912921 34.14416 78.981157 33.751953 79.064453 C 32.967539 79.231045 31.95288 79.453532 30.9375 79.679688 C 29.92212 79.905843 28.90824 80.136807 28.126953 80.318359 C 28.032903 80.340219 27.979476 80.352677 27.892578 80.373047 C 27.893678 80.361447 27.893303 80.359386 27.894531 80.347656 C 27.979651 79.502338 28.159874 78.29892 28.375 77.072266 C 28.590126 75.845611 28.841504 74.589062 29.068359 73.621094 C 29.181787 73.137109 29.289061 72.723571 29.376953 72.4375 C 29.420903 72.294465 29.460373 72.181466 29.484375 72.123047 C 29.487775 72.114747 29.468656 72.141196 29.472656 72.134766 A 1.0001 1.0001 0 0 0 28.71875 70.53125 L 20.048828 70.150391 C 22.22849 67.104619 24.708224 64.206532 27.527344 61.470703 A 1.0001 1.0001 0 0 0 27.191406 59.820312 L 15.917969 55.464844 C 20.031838 53.816044 23.924375 51.781727 27.4375 49.105469 L 27.318359 49.15625 C 27.573884 48.996419 27.802058 48.739236 27.865234 48.529297 C 27.956754 48.225172 27.916942 48.045653 27.888672 47.890625 C 27.832122 47.58057 27.730337 47.340499 27.595703 47.042969 C 27.326435 46.447908 26.906097 45.695073 26.367188 44.796875 C 25.289365 43.00048 23.741498 40.655466 22.115234 38.3125 C 20.48897 35.969534 18.788933 33.634118 17.404297 31.865234 C 16.991766 31.338223 16.678483 30.986258 16.330078 30.572266 C 16.570686 30.573201 16.705775 30.573103 16.974609 30.574219 C 18.861345 30.581719 21.39662 30.590813 23.939453 30.601562 C 29.02512 30.623062 34.138672 30.646484 34.138672 30.646484 A 1.0001 1.0001 0 0 0 35.136719 29.537109 C 34.502481 23.747191 34.536662 17.149993 35.226562 9.765625 C 40.71703 13.696483 45.68059 17.540549 50.230469 21.322266 A 1.0001 1.0001 0 0 0 51.664062 21.158203 L 62.800781 6.5332031 z M 53.080078 28.742188 C 56.35696 28.674104 59.633072 29.334693 62.054688 30.734375 C 64.799027 32.320903 66.570461 34.588344 67.755859 36.890625 C 66.737492 36.692171 65.157859 37.132288 64.443359 37.609375 C 60.373359 40.325375 56.646297 42.669812 55.529297 43.007812 C 53.684297 43.329813 44.881344 41.453703 43.027344 40.970703 C 42.587344 40.806703 39.133859 40.190547 38.505859 41.810547 C 37.863859 43.465547 39.051125 43.897719 40.703125 44.511719 C 41.639876 44.859892 43.464135 45.326286 45.810547 45.751953 C 41.16537 46.823317 38.020884 51.281505 38.8125 56.509766 C 39.110988 58.483857 39.87489 60.089228 40.890625 61.337891 A 1.0001 1.0001 0 0 0 41.507812 62.023438 C 41.876903 62.392308 42.265775 62.727919 42.675781 63.015625 C 44.555098 64.334362 46.749748 64.835668 48.662109 64.683594 C 50.630477 64.527113 53.084807 63.519337 55.005859 61.646484 C 56.926912 59.773631 58.23853 56.916258 57.507812 53.423828 C 56.809519 50.086363 55.189704 48.03213 53.371094 46.898438 C 54.075553 46.977887 54.673298 47.029297 55.134766 47.029297 C 56.085766 47.029297 56.46075 46.917844 56.71875 46.839844 C 57.381715 46.640815 58.338204 46.139441 59.392578 45.515625 C 59.091857 45.882756 58.814463 46.273071 58.578125 46.697266 C 57.471373 48.683739 57.117632 51.233619 57.634766 54.201172 C 58.077554 56.739495 59.349342 58.556872 60.935547 59.703125 C 60.956959 59.784302 61.538122 61.993078 61.763672 64.365234 C 61.87853 65.573224 61.888576 66.8072 61.716797 67.71875 C 61.545013 68.6303 61.242342 69.077474 60.902344 69.222656 C 60.377441 69.446795 60.11444 69.38874 59.763672 69.189453 C 59.412904 68.990163 59.01896 68.56047 58.695312 68.037109 C 58.371665 67.513749 58.115437 66.911985 57.947266 66.443359 C 57.863176 66.209046 57.800732 66.006864 57.761719 65.867188 C 57.742209 65.797348 57.727273 65.743545 57.720703 65.714844 A 1.0001 1.0001 0 0 0 55.728516 65.84375 C 55.728516 66.174923 55.755204 66.088973 55.771484 66.160156 C 55.787764 66.231336 55.807604 66.311804 55.833984 66.40625 C 55.886744 66.595142 55.963445 66.837672 56.064453 67.119141 C 56.266469 67.682077 56.566991 68.394001 56.996094 69.087891 C 57.425196 69.78178 57.978471 70.474962 58.775391 70.927734 C 59.57231 71.380507 60.657402 71.502362 61.6875 71.0625 C 62.902501 70.543683 63.452065 69.316465 63.683594 68.087891 C 63.915122 66.859316 63.8788 65.489292 63.753906 64.175781 C 63.636442 62.940386 63.432532 61.773605 63.248047 60.861328 C 64.94993 61.40608 66.73135 61.422402 68.257812 61.064453 C 70.3489 60.574231 72.379708 59.288787 73.767578 57.392578 C 73.886629 57.229922 73.992932 57.056795 74.101562 56.884766 C 74.273897 57.616968 74.402485 58.366805 74.513672 59.117188 A 1.0001 1.0001 0 0 0 74.419922 59.330078 C 73.92215 60.876104 72.570559 61.696266 71.173828 62.152344 C 70.475463 62.380383 69.789291 62.500956 69.279297 62.558594 C 69.0243 62.587414 68.812787 62.601239 68.671875 62.605469 C 68.609765 62.607369 68.567952 62.607822 68.541016 62.607422 A 1.0001 1.0001 0 0 0 68.095703 64.550781 C 68.282079 64.610261 68.300053 64.595579 68.345703 64.599609 C 68.391353 64.603609 68.427483 64.604269 68.466797 64.605469 C 68.545437 64.607769 68.631304 64.608469 68.732422 64.605469 C 68.934658 64.599369 69.194685 64.581815 69.503906 64.546875 C 70.122349 64.476985 70.931037 64.334821 71.794922 64.052734 C 72.814723 63.719737 73.937695 63.159283 74.847656 62.279297 C 75.042789 65.349534 74.890625 67.808594 74.890625 67.808594 A 1.0001 1.0001 0 0 0 75.185547 68.589844 C 75.185547 68.589844 76.088223 69.547761 76.408203 70.410156 A 1.0001 1.0001 0 0 0 76.427734 70.457031 C 77.088463 71.998991 76.623465 74.151285 75.550781 76.197266 C 74.478097 78.243246 72.829205 80.12035 71.705078 80.966797 A 1.0001 1.0001 0 0 0 71.359375 81.441406 C 70.202287 84.821985 65.226562 86.988281 65.226562 86.988281 A 1.0001 1.0001 0 0 0 64.646484 87.609375 L 63.505859 91.123047 A 1.0001 1.0001 0 0 0 63.458984 91.505859 C 63.458984 91.505859 63.517164 91.960657 63.0625 92.585938 C 62.607838 93.211218 61.595038 94.02203 58.939453 94.191406 C 53.888456 94.513566 51.727946 91.327962 51.583984 91.111328 C 51.572854 91.062638 51.553452 91.053278 51.570312 90.763672 C 51.594093 90.355291 51.710718 89.713459 52.154297 88.865234 A 1.0001 1.0001 0 0 0 51.611328 87.462891 C 47.50277 85.9622 42.788134 82.571223 41.697266 79.130859 C 40.637045 75.78715 43.617188 72.619141 43.617188 72.619141 A 1.00067 1.00067 0 1 0 42.183594 71.222656 C 42.183594 71.222656 40.970482 72.432681 40.162109 74.314453 A 1.0001 1.0001 0 0 0 40.078125 74.326172 C 40.078125 74.326172 39.12373 74.473142 38.005859 74.193359 C 36.887989 73.913577 35.729648 73.311434 35.087891 71.574219 C 34.474315 69.91329 35.131371 68.636713 36.046875 67.576172 C 36.96238 66.51563 38.064453 65.884766 38.064453 65.884766 A 1.0001 1.0001 0 0 0 38.560547 64.857422 C 38.560547 64.857422 37.960525 61.047342 37.34375 56.664062 C 36.726975 52.280785 36.096645 47.270098 36.037109 45.111328 C 35.918721 40.818579 37.776476 36.398982 42.300781 32.308594 C 44.406421 30.404901 47.95255 29.131725 51.677734 28.816406 C 52.143383 28.776992 52.611952 28.751914 53.080078 28.742188 z M 68.501953 38.517578 C 69.130138 40.068019 69.516466 41.529609 69.792969 42.771484 C 69.233568 42.547084 68.637974 42.385495 68.007812 42.296875 C 66.721908 42.116038 65.297375 42.230285 63.773438 42.679688 C 63.749532 42.68674 63.726942 42.69591 63.703125 42.703125 C 64.984832 41.818105 66.129412 41.014335 66.642578 40.671875 C 67.25622 40.262348 68.133348 39.353751 68.501953 38.517578 z M 66.964844 44.195312 C 67.225237 44.199087 67.475234 44.218592 67.716797 44.251953 C 68.683049 44.385397 69.503568 44.747841 70.220703 45.28125 C 71.654973 46.348068 72.703771 48.218693 73.259766 50.59375 C 73.6326 52.186397 73.461311 53.588627 72.949219 54.800781 C 69.36023 55.000855 61.224365 56.714285 60.787109 56.806641 C 60.237918 56.051478 59.820796 55.091806 59.605469 53.857422 C 59.147603 51.229975 59.484173 49.181198 60.326172 47.669922 C 61.16817 46.158646 62.52355 45.133494 64.339844 44.597656 C 65.314141 44.310337 66.183664 44.183989 66.964844 44.195312 z M 48.082031 47.501953 C 49.280573 47.517283 50.869401 47.709706 52.263672 48.558594 C 53.657942 49.407481 54.933944 50.885836 55.550781 53.833984 C 55.876207 55.389341 55.715173 56.696978 55.257812 57.816406 C 49.823114 58.211411 43.870068 59.579273 42.318359 59.951172 C 41.579464 59.003509 41.026413 57.780683 40.789062 56.210938 C 40.031481 51.207459 43.344395 47.442028 48.082031 47.501953 z M 65.693359 51.181641 A 1.703 1.627 0 0 0 65.693359 54.435547 A 1.703 1.627 0 0 0 65.693359 51.181641 z M 47.765625 54.435547 A 1.703 1.627 0 0 0 47.765625 57.689453 A 1.703 1.627 0 0 0 47.765625 54.435547 z M 71.521484 56.949219 C 70.475375 58.037783 69.120452 58.807811 67.800781 59.117188 C 66.329792 59.462126 64.431151 59.351467 62.873047 58.5625 C 62.818324 58.53479 62.766878 58.499927 62.712891 58.470703 C 64.609197 58.091909 68.477513 57.332005 71.521484 56.949219 z M 76.425781 58.308594 L 84.042969 63.419922 L 76.962891 65.599609 C 76.989394 63.85113 76.910038 61.152399 76.425781 58.308594 z M 53.851562 59.955078 C 53.770041 60.041266 53.694445 60.131908 53.609375 60.214844 C 52.062927 61.722491 49.881538 62.579934 48.503906 62.689453 C 47.178024 62.79489 45.558952 62.455432 44.162109 61.589844 C 46.401829 61.096787 50.1562 60.343583 53.851562 59.955078 z M 49.957031 65.652344 A 1.0001 1.0001 0 0 0 49.425781 65.839844 C 48.100001 66.765779 46.327118 66.849748 44.802734 66.642578 C 44.040543 66.538993 43.354983 66.369258 42.849609 66.222656 C 42.596922 66.149356 42.391278 66.082141 42.234375 66.03125 C 42.155925 66.0058 42.089961 65.984014 42.027344 65.964844 C 41.996034 65.955244 41.966264 65.946367 41.923828 65.935547 C 41.881388 65.924737 41.878538 65.898437 41.646484 65.898438 A 1.0001 1.0001 0 0 0 41.462891 67.884766 C 41.497051 67.895456 41.54719 67.910894 41.617188 67.933594 C 41.776941 67.985414 42.008906 68.060176 42.292969 68.142578 C 42.861095 68.307383 43.638895 68.50346 44.533203 68.625 C 46.32182 68.86808 48.632046 68.83358 50.572266 67.478516 A 1.0001 1.0001 0 0 0 49.957031 65.652344 z M 72.271484 69.117188 C 72.035331 69.112334 71.80309 69.13684 71.576172 69.181641 C 71.122335 69.271241 70.688545 69.444953 70.283203 69.640625 C 69.47252 70.03197 68.725713 70.56149 68.099609 71.027344 C 67.473506 71.493197 66.906523 71.919324 66.791016 71.982422 C 65.479805 72.698692 63.875286 73.75872 61.845703 74.056641 A 1.0001 1.0001 0 0 0 61.84375 74.058594 C 59.371033 74.422229 54.029838 73.721116 51.234375 73.275391 C 49.621705 73.018257 47.872253 73.220201 46.435547 73.953125 C 44.998841 74.686049 43.849042 76.161259 44.039062 78.009766 C 44.155133 79.142732 44.873268 80.087731 45.859375 80.986328 C 46.845482 81.884925 48.158181 82.728465 49.701172 83.447266 C 52.787155 84.884866 56.801032 85.822884 60.873047 85.347656 C 64.987585 84.867466 68.761303 82.747035 71.416016 80.158203 C 74.070729 77.569372 75.758054 74.4746 75.044922 71.712891 C 74.715199 70.436285 73.970121 69.507796 72.992188 69.226562 C 72.747704 69.156255 72.507638 69.122041 72.271484 69.117188 z M 72.103516 71.144531 C 72.033654 71.930892 71.789616 73.750049 70.990234 73.964844 C 70.238393 74.166864 69.924586 72.927644 69.810547 72.267578 C 70.259968 71.952487 70.72127 71.6495 71.152344 71.441406 C 71.533715 71.257305 71.857642 71.172049 72.103516 71.144531 z M 69.787109 72.283203 C 69.852584 73.139113 69.916408 75.301905 68.894531 75.814453 C 67.962785 76.281793 67.348257 74.894823 67.082031 74.119141 C 67.314946 73.985094 67.558512 73.842885 67.75 73.738281 C 68.250493 73.464879 68.703619 73.070819 69.294922 72.630859 C 69.45223 72.513814 69.621647 72.39959 69.787109 72.283203 z M 67.001953 74.164062 C 67.093645 75.068434 67.098013 76.843221 65.783203 77.179688 C 64.566905 77.490945 64.043247 76.377081 63.828125 75.636719 C 65.124334 75.22027 66.174347 74.639466 67.001953 74.164062 z M 49.988281 75.175781 C 50.300062 75.177371 50.608086 75.201676 50.904297 75.248047 C 50.729063 75.749112 50.273686 76.754468 49.375 76.935547 C 48.491127 77.113641 48.006285 76.107832 47.806641 75.554688 C 48.456237 75.314092 49.221982 75.171874 49.988281 75.175781 z M 51.041016 75.267578 C 52.070854 75.431485 53.411751 75.624355 54.830078 75.798828 C 54.736953 76.562402 54.386005 78.148438 53.056641 78.148438 C 51.577712 78.148438 51.145198 75.966661 51.041016 75.267578 z M 63.550781 75.716797 C 63.347201 76.626752 62.870783 78.134418 61.847656 78.240234 C 60.713705 78.357513 59.97805 76.858658 59.699219 76.169922 C 60.579151 76.175961 61.413575 76.143167 62.134766 76.037109 C 62.633815 75.963855 63.10134 75.848773 63.550781 75.716797 z M 55.056641 75.826172 C 56.517429 76.001044 58.032638 76.150413 59.457031 76.173828 C 59.235913 76.862882 58.633796 78.357749 57.53125 78.451172 C 56.419185 78.545401 55.443294 76.676258 55.056641 75.826172 z M 67.384766 79.605469 C 67.765308 79.602049 68.224341 79.746411 68.636719 79.916016 C 67.763077 80.599587 66.807227 81.230393 65.777344 81.755859 C 65.989709 81.066432 66.420666 79.902127 67.021484 79.667969 C 67.128609 79.626344 67.252408 79.606658 67.384766 79.605469 z M 64.220703 80.919922 C 64.803331 81.001432 65.206325 81.54188 65.427734 81.916016 C 64.44352 82.390973 63.410041 82.773666 62.347656 83.037109 C 62.540234 82.362354 62.991431 81.138447 63.816406 80.941406 C 63.959156 80.907281 64.093172 80.90208 64.220703 80.919922 z M 53.5 81.275391 C 54.384925 81.337288 54.764013 82.382938 54.929688 83.0625 C 53.779333 82.8255 52.67589 82.502418 51.666016 82.109375 C 52.094709 81.696177 52.73813 81.222101 53.5 81.275391 z M 60.609375 81.365234 C 61.768397 81.254225 62.095957 82.433688 62.189453 83.080078 C 61.678174 83.200719 61.162214 83.300684 60.642578 83.361328 C 60.03112 83.432689 59.418178 83.454702 58.806641 83.457031 C 58.984912 82.75678 59.457003 81.475606 60.609375 81.365234 z M 57.212891 81.457031 C 57.971063 81.522865 58.405281 82.765128 58.591797 83.455078 C 57.486468 83.445605 56.39104 83.343575 55.333984 83.148438 C 55.724007 82.486894 56.474739 81.392875 57.212891 81.457031 z"/></svg>